<svg width="17" height="17" viewBox="0 0 17 17" fill="none" xmlns="http://www.w3.org/2000/svg">
<path d="M7.64921 2.61895C7.91705 1.79462 9.08325 1.79462 9.35109 2.61895L10.2076 5.25511C10.3274 5.62379 10.671 5.87338 11.0586 5.87338H13.8304C14.6972 5.87338 15.0575 6.98249 14.3563 7.49195L12.1139 9.12118C11.8003 9.34903 11.669 9.75291 11.7888 10.1215L12.6454 12.7577C12.9132 13.582 11.9698 14.2675 11.2685 13.7581L9.02608 12.1288C8.71248 11.901 8.28783 11.901 7.97423 12.1288L5.73179 13.7581C5.03054 14.2675 4.08708 13.582 4.35492 12.7577L5.21146 10.1215C5.33126 9.75291 5.20001 9.34903 4.88645 9.12118L2.64398 7.49195C1.94276 6.98249 2.30314 5.87338 3.16989 5.87338H5.9417C6.32934 5.87338 6.67288 5.62379 6.79268 5.25511L7.64921 2.61895Z" fill="#FFE229"/>
</svg>
